<?xml version="1.0" encoding="UTF-8"?>
<svg enable-background="new 0 0 1840.9 1568.5" version="1.1" viewBox="0 0 1840.9 1568.5" xml:space="preserve" xmlns="http://www.w3.org/2000/svg">
<style type="text/css">
	.st0{fill:#F05627;}
	.st1{fill:#FFFFFF;}
	.st2{fill:url(#bi);stroke:#D0D2D3;stroke-miterlimit:10;}
	.st3{fill:url(#bh);stroke:#D0D2D3;stroke-miterlimit:10;}
	.st4{fill:url(#bg);stroke:#D0D2D3;stroke-miterlimit:10;}
	.st5{fill:url(#bf);stroke:#D0D2D3;stroke-miterlimit:10;}
	.st6{fill:url(#be);stroke:#D0D2D3;stroke-miterlimit:10;}
	.st7{fill:url(#bd);stroke:#D0D2D3;stroke-miterlimit:10;}
	.st8{fill:url(#bc);stroke:#D0D2D3;stroke-miterlimit:10;}
	.st9{fill:url(#bb);stroke:#D0D2D3;stroke-miterlimit:10;}
	.st10{fill:url(#ba);stroke:#D0D2D3;stroke-miterlimit:10;}
	.st11{fill:url(#az);stroke:#D0D2D3;stroke-miterlimit:10;}
	.st12{fill:url(#ay);}
	.st13{fill:url(#ax);}
	.st14{fill:url(#aw);}
	.st15{fill:url(#av);}
	.st16{fill:url(#au);}
	.st17{fill:url(#at);}
	.st18{fill:url(#as);}
	.st19{fill:url(#ar);}
	.st20{fill:url(#aq);}
	.st21{fill:url(#ap);}
	.st22{fill:url(#ao);}
	.st23{fill:url(#an);}
	.st24{fill:url(#am);}
	.st25{fill:url(#al);}
	.st26{fill:url(#ak);}
	.st27{fill:url(#aj);}
	.st28{fill:url(#ai);}
	.st29{fill:url(#ah);}
	.st30{fill:url(#ag);}
	.st31{fill:url(#af);}
	.st32{fill:url(#ae);}
	.st33{fill:url(#ad);}
	.st34{fill:url(#ac);}
	.st35{fill:url(#ab);}
	.st36{fill:url(#aa);}
	.st37{fill:url(#z);}
	.st38{fill:url(#y);}
	.st39{fill:url(#x);}
	.st40{fill:url(#w);}
	.st41{fill:url(#v);}
	.st42{fill:url(#u);}
	.st43{fill:url(#t);}
	.st44{fill:url(#s);}
	.st45{fill:url(#r);}
	.st46{fill:url(#q);}
	.st47{fill:url(#p);}
	.st48{fill:url(#o);}
	.st49{fill:url(#n);}
	.st50{fill:url(#m);}
	.st51{fill:url(#l);}
	.st52{fill:url(#k);}
	.st53{fill:url(#j);}
	.st54{fill:url(#i);}
	.st55{fill:url(#h);}
	.st56{fill:url(#g);}
	.st57{fill:none;}
	.st58{fill:url(#f);}
	.st59{fill:url(#e);}
	.st60{fill:url(#d);}
	.st61{fill:url(#c);}
	.st62{fill:url(#b);}
	.st63{fill:url(#a);}
</style>
<path class="st0" d="m654.2 581.7c9.3 0 17.7 1.7 25.2 5.2s13.7 8.3 18.8 14.3c5 6.1 8.6 13.2 10.6 21.3 2.1 8.1 2.3 16.8 0.8 26.1l-2.3 13.6h-53.4c0.5-2.8 1.1-5.9 1.7-9.1s0.9-6.2 0.8-8.9-1-4.9-2.7-6.6-4.6-2.5-8.7-2.5h-19.4c-8.8 0-13.9 4.5-15.5 13.6l-4.6 26.7c-1.5 9 1.9 13.6 10.5 13.6h19.4c9.3 0 17.7 1.7 25.2 5.2s13.7 8.3 18.8 14.3c5 6.1 8.6 13.1 10.6 21.1 2.1 8 2.3 16.6 0.8 25.9l-4.6 26.7c-1.5 9.3-4.8 18-9.9 26.1-5 8.1-11.1 15.2-18.2 21.3s-15 10.8-23.6 14.3c-8.7 3.5-17.6 5.2-26.9 5.2h-19.6c-9.3 0-17.7-1.7-25.2-5.2s-13.7-8.3-18.8-14.3c-5-6.1-8.6-13.2-10.6-21.3-2.1-8.1-2.3-16.8-0.8-26.1l4.6-26.7h53.8l-4.6 27c-1.5 8.9 2.1 13.3 10.8 13.3h19.4c9 0 14.3-4.4 15.9-13.3l4.6-26.9c1.5-8.8-2.2-13.3-11.2-13.3h-19.4c-9.3 0-17.7-1.7-25.2-5.2s-13.7-8.3-18.6-14.3c-4.9-6.1-8.4-13.2-10.5-21.3s-2.3-16.8-0.8-26.1l4.6-26.7c1.5-9.3 4.8-18 9.9-26.1 5-8.1 11.1-15.2 18.2-21.3s15-10.8 23.6-14.3 17.6-5.2 26.9-5.2h19.6z"/>
<path class="st0" d="M690.2,849.2L737,582.1h53.4l-46.8,267.1H690.2z"/>
<path class="st0" d="m814.9 849.2h-53.4l41.8-238.1c0.3 1.8 1.1 6.6 2.5 14.5s3.2 17.3 5.2 28.3c2.1 11 4.2 22.6 6.4 35s4.3 23.8 6.2 34.3 4.2 22.6 6.8 36.6l-15.5 89.4zm125.8-266.8h53.4l-46.8 266.8h-53.4l19-109.2-58.5 109.2-47.6-257.9c0-0.3 0.3-1.7 0.8-4.3s0.8-4.1 0.8-4.6h53.4l20.1 109.2 58.8-109.2z"/>
<path class="st0" d="m976.7 762.5h53.4l-15.1 86.7h-53.4l15.1-86.7zm111.1-180.1c9.3 0 17.6 1.7 25 5.2s13.6 8.3 18.6 14.3c5 6.1 8.6 13.1 10.6 21.1 2.1 8 2.3 16.6 0.8 25.9l-7.4 39.9c-1.5 9.3-4.8 18-9.7 26.1s-10.9 15.2-18 21.3-15 10.8-23.6 14.3c-8.7 3.5-17.6 5.2-26.9 5.2h-79.4l30.6-173.5h79.4zm1.6 67c1.5-9-2.1-13.5-10.8-13.5h-25.9l-12 66.6h25.9c8.8 0 13.9-4.5 15.5-13.5l7.3-39.6z"/>
<path class="st0" d="m1281.4 782.2c-1.5 9.3-4.8 18-9.7 26.1s-10.9 15.2-18 21.3-15 10.8-23.6 14.3-17.6 5.2-26.9 5.2h-16.3c-9.3 0-17.7-1.7-25.2-5.2s-13.7-8.3-18.8-14.3c-5-6.1-8.6-13.2-10.6-21.3-2.1-8.1-2.3-16.8-0.8-26.1l35.2-200.2h53.8l-35.2 200.2c-1.5 9 2.1 13.6 10.8 13.6h16.3c9 0 14.3-4.5 15.9-13.6l35.2-200.2h53l-35.1 200.2z"/>
<path class="st0" d="m1295.3 795.8h120.4l-9.3 53.4h-120.4l9.3-53.4zm1.2-6.6 36.4-207.1h53.8l-36.4 207.1h-53.8z"/>
	<path class="st1" d="m585.3 1132.2-7 40.3h-53.4l46.8-267.1h53.4l-17.8 101.4 65.8-101.4h58.9l-146.7 226.8zm44.1 40.3-10.8-80.1 46.5-72 20.1 152.2h-55.8z"/>
	<path class="st1" d="m794 965.4-8.5 46.8h76.7l-9.3 53.4h-76.7l-9.3 53.4h76.7l-9.3 53.4h-130.2l36.4-207.1h53.5zm-52.3-6.6 9.3-53.4h130.1l-9.3 53.4h-130.1z"/>
	<path class="st1" d="m1018.9 1106.1c-1.5 9.3-4.8 17.9-9.7 25.9s-10.9 15-18 21.1c-7.1 6-15 10.8-23.6 14.3s-17.6 5.2-26.9 5.2h-89l17.4-100.3h53.4l-8.1 46.8h35.6c8.8 0 13.9-4.5 15.5-13.5l4.6-26.5c0.8-4.6 0.1-7.9-2.1-9.8s-5-3.1-8.5-3.7c-3.5-0.5-7.3-0.6-11.4-0.2s-7.7 0.6-10.8 0.6h-67l28.3-160.3h89c9.3 0 17.6 1.7 25 5.2s13.6 8.3 18.6 14.3c5 6.1 8.6 13.1 10.6 21.1 2.1 8 2.3 16.7 0.8 26l-5 26.8c-0.8 5.4-2.5 11.3-5 17.6-2.6 6.3-5.7 11.8-9.3 16.5-9.6-15.1-23.5-24-41.8-26.6 1.3-2 2.2-4.6 2.7-7.7l5-26.5c1.5-9-2.1-13.4-10.8-13.4h-35.6l-9.7 53.4h35.6c9.5 0 18.1 1.7 25.7 5.2s13.8 8.2 18.6 14.1 8.1 12.9 10.1 21c1.9 8.1 2.1 16.9 0.6 26.5l-4.8 26.9z"/>
	<path class="st1" d="m1157.9 905.3c9.3 0 17.7 1.7 25.2 5.2s13.7 8.3 18.8 14.3c5 6.1 8.6 13.2 10.6 21.3 2.1 8.1 2.3 16.8 0.8 26.1l-35.2 200.2h-53.8l10.5-61.2h-46.1l-10.5 61.2h-53.8l20.1-114.6h99.9l14.7-84c0.8-4.4 0.4-8-1.2-10.8-1.5-2.8-4.5-4.3-8.9-4.3h-22.8c-3.9 0-7 1.5-9.3 4.6s-3.7 6.5-4.3 10.1c-1.3 7.2-2.5 14-3.5 20.3s-2.1 12.5-3.1 18.6-2.1 12.3-3.1 18.6-2.2 13.1-3.5 20.3h-53.8l13.9-79c1.5-8.8 4.4-17.2 8.5-25.4 4.1-8.1 9.3-15.3 15.5-21.5s13.3-11.1 21.3-14.7 16.8-5.4 26.3-5.4h26.8z"/>
	<path class="st1" d="m1196.2 1172.5 46.8-267.1h53.4l-46.8 267.1h-53.4z"/>
	<path class="st1" d="m1330.9 1132.2-7 40.3h-53.4l46.8-267.1h53.4l-17.8 101.4 65.8-101.4h58.8l-146.6 226.8zm44.2 40.3-10.8-80.1 46.5-72 20.1 152.2h-55.8z"/>
	<path class="st1" d="m1582.2 905.3c9.3 0 17.7 1.7 25.2 5.2s13.7 8.3 18.8 14.3c5 6.1 8.6 13.2 10.6 21.3 2.1 8.1 2.3 16.8 0.8 26.1l-35.2 200.2h-53.8l10.5-61.2h-46.1l-10.5 61.2h-53.8l20.1-114.6h99.9l14.7-84c0.8-4.4 0.4-8-1.2-10.8-1.5-2.8-4.5-4.3-8.9-4.3h-22.8c-3.9 0-7 1.5-9.3 4.6s-3.7 6.5-4.3 10.1c-1.3 7.2-2.5 14-3.5 20.3s-2.1 12.5-3.1 18.6-2.1 12.3-3.1 18.6-2.2 13.1-3.5 20.3h-53.8l13.9-79c1.5-8.8 4.4-17.2 8.5-25.4 4.1-8.1 9.3-15.3 15.5-21.5s13.3-11.1 21.3-14.7 16.8-5.4 26.3-5.4h26.8z"/>
	<path class="st1" d="m1619 1172.5 41.8-238.9 31.4 128.2-19.4 110.7h-53.8zm127-139 22.5-128.2h53.4l-46.8 267.1h-53.4l-57.7-256.7 1.9-10.5h53.8l26.3 128.3z"/>
	<linearGradient id="bi" x1="604.28" x2="678.65" y1="499.44" y2="499.44" gradientUnits="userSpaceOnUse">
		<stop stop-color="#EF4849" offset="0"/>
		<stop stop-color="#BB216D" offset="1"/>
	</linearGradient>
	<path class="st2" d="m669.1 525.4c-0.6 3.6-1.8 6.9-3.8 10-1.9 3.1-4.2 5.8-7 8.2-2.8 2.3-5.8 4.2-9.2 5.5s-6.8 2-10.4 2h-34.5l6.8-38.9h20.7l-3.1 18.2h13.8c3.4 0 5.4-1.7 6-5.2l1.8-10.3c0.3-1.8 0-3-0.8-3.8-0.8-0.7-1.9-1.2-3.3-1.4-1.3-0.2-2.8-0.2-4.4-0.1s-3 0.2-4.2 0.2h-26l11-62.1h34.5c3.6 0 6.8 0.7 9.7 2 2.9 1.4 5.3 3.2 7.2 5.6 2 2.4 3.3 5.1 4.1 8.2s0.9 6.5 0.3 10.1l-2 10.4c-0.3 2.1-1 4.4-2 6.8-1 2.5-2.2 4.6-3.6 6.4-3.7-5.9-9.1-9.3-16.2-10.3 0.5-0.8 0.8-1.8 1-3l2-10.3c0.6-3.5-0.8-5.2-4.2-5.2h-13.8l-3.8 20.7h13.8c3.7 0 7 0.7 10 2s5.4 3.2 7.2 5.5 3.2 5 3.9 8.2c0.8 3.1 0.8 6.6 0.2 10.3l-1.7 10.3z"/>
	<linearGradient id="bh" x1="671.65" x2="740.24" y1="499.37" y2="499.37" gradientUnits="userSpaceOnUse">
		<stop stop-color="#EF4849" offset="0"/>
		<stop stop-color="#BB216D" offset="1"/>
	</linearGradient>
	<path class="st3" d="m706.5 470.8-3.3 18.2h29.7l-3.6 20.7h-29.7l-3.6 20.7h29.7l-3.6 20.7h-50.4l14.1-80.3h20.7zm-20.3-2.5 3.6-20.7h50.4l-3.6 20.7h-50.4z"/>
	<linearGradient id="bg" x1="728.84" x2="819.03" y1="499.44" y2="499.44" gradientUnits="userSpaceOnUse">
		<stop stop-color="#EF4849" offset="0"/>
		<stop stop-color="#BB216D" offset="1"/>
	</linearGradient>
	<path class="st4" d="m749.5 551.1h-20.7l16.2-92.3c0.1 0.7 0.4 2.6 1 5.6s1.2 6.7 2 11 1.6 8.8 2.5 13.6c0.8 4.8 1.6 9.2 2.4 13.3s1.6 8.8 2.6 14.2l-6 34.6zm48.8-103.4h20.7l-18.2 103.4h-20.7l7.4-42.3-22.7 42.3-18.5-99.9c0-0.1 0.1-0.7 0.3-1.7s0.3-1.6 0.3-1.8h20.7l7.8 42.3 22.9-42.3z"/>
	<linearGradient id="bf" x1="848.96" x2="921.08" y1="499.37" y2="499.37" gradientUnits="userSpaceOnUse">
		<stop stop-color="#EF4849" offset="0"/>
		<stop stop-color="#BB216D" offset="1"/>
	</linearGradient>
	<path class="st5" d="m907.4 525.2c-0.6 3.6-1.8 7-3.8 10.1-1.9 3.1-4.2 5.9-7 8.3s-5.8 4.2-9.2 5.5c-3.4 1.4-6.8 2-10.4 2h-6.3c-3.6 0-6.9-0.7-9.8-2s-5.3-3.2-7.3-5.5-3.3-5.1-4.1-8.3-0.9-6.5-0.3-10.1l13.7-77.6h20.9l-13.7 77.6c-0.6 3.5 0.8 5.2 4.2 5.2h6.3c3.5 0 5.5-1.7 6.1-5.2l13.7-77.6h20.6l-13.6 77.6z"/>
	<linearGradient id="be" x1="909.07" x2="987.71" y1="499.37" y2="499.37" gradientUnits="userSpaceOnUse">
		<stop stop-color="#EF4849" offset="0"/>
		<stop stop-color="#BB216D" offset="1"/>
	</linearGradient>
	<path class="st6" d="m909.1 551.1 16.2-92.6 12.2 49.7-7.5 42.9h-20.9zm49.2-53.8 8.7-49.7h20.7l-18.2 103.6h-20.7l-22.4-99.5 0.7-4.1h20.9l10.3 49.7z"/>
	<linearGradient id="bd" x1="979.52" x2="1048.9" y1="499.29" y2="499.29" gradientUnits="userSpaceOnUse">
		<stop stop-color="#EF4849" offset="0"/>
		<stop stop-color="#BB216D" offset="1"/>
	</linearGradient>
	<path class="st7" d="m1027 447.4c3.6 0 6.9 0.7 9.8 2 2.9 1.4 5.3 3.2 7.3 5.6s3.3 5.1 4.1 8.3 0.9 6.5 0.3 10.1l-0.9 5.3h-20.7c0.2-1.1 0.4-2.3 0.7-3.5 0.2-1.3 0.3-2.4 0.3-3.5-0.1-1.1-0.4-1.9-1-2.6-0.7-0.7-1.8-1-3.4-1h-7.5c-3.4 0-5.4 1.8-6 5.2l-1.8 10.4c-0.6 3.5 0.8 5.2 4.1 5.2h7.5c3.6 0 6.9 0.7 9.8 2s5.3 3.2 7.3 5.6 3.3 5.1 4.1 8.2 0.9 6.5 0.3 10.1l-1.8 10.4c-0.6 3.6-1.9 7-3.8 10.1-2 3.1-4.3 5.9-7.1 8.3s-5.8 4.2-9.2 5.5c-3.3 1.4-6.8 2-10.4 2h-7.5c-3.6 0-6.9-0.7-9.8-2s-5.3-3.2-7.3-5.5c-2-2.4-3.3-5.1-4.1-8.3s-0.9-6.5-0.3-10.1l1.8-10.4h20.9l-1.8 10.5c-0.6 3.4 0.8 5.2 4.2 5.2h7.5c3.5 0 5.5-1.7 6.1-5.1l1.8-10.4c0.6-3.4-0.9-5.1-4.4-5.1h-7.5c-3.6 0-6.9-0.7-9.8-2-2.9-1.4-5.3-3.2-7.2-5.6s-3.3-5.1-4.1-8.3-0.9-6.5-0.3-10.1l1.8-10.4c0.6-3.6 1.9-7 3.8-10.1s4.3-5.9 7.1-8.3c2.7-2.4 5.8-4.2 9.2-5.6 3.3-1.3 6.8-2 10.4-2h7.5z"/>
	<linearGradient id="bc" x1="1078.8" x2="1151.2" y1="499.29" y2="499.29" gradientUnits="userSpaceOnUse">
		<stop stop-color="#EF4849" offset="0"/>
		<stop stop-color="#BB216D" offset="1"/>
	</linearGradient>
	<path class="st8" d="m1129.5 447.4c3.6 0 6.9 0.7 9.8 2 2.9 1.4 5.3 3.2 7.2 5.6s3.3 5.1 4.1 8.3 0.9 6.5 0.3 10.1l-2.9 15.6c-0.6 3.6-1.9 7-3.8 10.1s-4.2 5.8-7 8.2-5.8 4.2-9.2 5.5c-3.4 1.4-6.8 2-10.4 2h-6.6c-3.5 0-5.5 1.8-6.1 5.2l-5.4 31.1h-20.7l5.4-31.1c0.6-3.6 1.9-7 3.8-10.1 1.9-3.2 4.3-5.9 7.1-8.3 2.7-2.4 5.8-4.2 9.2-5.6 3.4-1.3 6.9-2 10.5-2h6.6c3.4 0 5.4-1.7 6-5.1l2.9-15.7c0.6-3.4-0.9-5.1-4.4-5.1h-6.6c-1.6 0-2.8 0.3-3.7 1s-1.5 1.5-2 2.5c-0.4 1-0.7 2.2-0.9 3.4-0.1 1.3-0.3 2.5-0.5 3.6h-20.7l0.9-5.3c0.6-3.6 1.9-7 3.8-10.1 2-3.2 4.3-5.9 7.1-8.3 2.7-2.4 5.8-4.2 9.2-5.6 3.3-1.3 6.8-2 10.4-2h6.6zm11.3 83-3.6 20.7h-35l3.6-20.7h35z"/>
	<linearGradient id="bb" x1="1147.2" x2="1219.2" y1="499.37" y2="499.37" gradientUnits="userSpaceOnUse">
		<stop stop-color="#EF4849" offset="0"/>
		<stop stop-color="#BB216D" offset="1"/>
	</linearGradient>
	<path class="st9" d="m1197.5 447.6c3.6 0 6.8 0.7 9.7 2 2.9 1.4 5.3 3.2 7.2 5.6 2 2.4 3.3 5.1 4.1 8.3s0.9 6.5 0.3 10.1l-9.2 51.8c-0.6 3.6-1.9 7-3.8 10.1s-4.2 5.8-7 8.2-5.8 4.2-9.2 5.5c-3.4 1.4-6.8 2-10.4 2h-10.2c-3.6 0-6.9-0.7-9.8-2s-5.3-3.2-7.3-5.5c-2-2.4-3.3-5.1-4.1-8.2s-0.9-6.5-0.3-10.1l9.2-51.8c0.6-3.6 1.8-7 3.8-10.1 1.9-3.2 4.2-5.9 7-8.3 2.7-2.4 5.8-4.2 9.2-5.6 3.4-1.3 6.9-2 10.5-2h10.3zm0.8 26c0.6-3.5-0.9-5.2-4.4-5.2h-10.4c-3.5 0-5.5 1.8-6.1 5.2l-9.2 51.8c-0.6 3.4 0.8 5.1 4.4 5.1h10.4c3.5 0 5.6-1.7 6.2-5.1l9.1-51.8z"/>
	<linearGradient id="ba" x1="1211" x2="1283.4" y1="499.29" y2="499.29" gradientUnits="userSpaceOnUse">
		<stop stop-color="#EF4849" offset="0"/>
		<stop stop-color="#BB216D" offset="1"/>
	</linearGradient>
	<path class="st10" d="m1261.7 447.4c3.6 0 6.9 0.7 9.8 2 2.9 1.4 5.3 3.2 7.2 5.6s3.3 5.1 4.1 8.3 0.9 6.5 0.3 10.1l-2.9 15.6c-0.6 3.6-1.8 7-3.8 10.1-1.9 3.1-4.2 5.8-7 8.2s-5.8 4.2-9.2 5.5c-3.4 1.4-6.8 2-10.4 2h-6.6c-3.5 0-5.6 1.8-6.2 5.2l-5.4 31.1h-20.6l5.4-31.1c0.6-3.6 1.9-7 3.8-10.1 2-3.2 4.3-5.9 7.1-8.3s5.8-4.2 9.2-5.6c3.4-1.3 6.9-2 10.5-2h6.6c3.4 0 5.4-1.7 6-5.1l2.9-15.7c0.6-3.4-0.8-5.1-4.4-5.1h-6.6c-1.6 0-2.8 0.3-3.7 1s-1.5 1.5-1.9 2.5c-0.5 1-0.8 2.2-0.9 3.4-0.1 1.3-0.3 2.5-0.5 3.6h-20.7l0.9-5.3c0.6-3.6 1.9-7 3.8-10.1 1.9-3.2 4.3-5.9 7.1-8.3 2.7-2.4 5.8-4.2 9.2-5.6 3.4-1.3 6.8-2 10.4-2h6.5zm11.3 83-3.6 20.7h-35l3.6-20.7h35z"/>
	<linearGradient id="az" x1="1279.4" x2="1351.4" y1="499.37" y2="499.37" gradientUnits="userSpaceOnUse">
		<stop stop-color="#EF4849" offset="0"/>
		<stop stop-color="#BB216D" offset="1"/>
	</linearGradient>
	<path class="st11" d="m1329.7 447.6c3.6 0 6.8 0.7 9.7 2 2.8 1.4 5.2 3.2 7.2 5.6 1.9 2.4 3.3 5.1 4.1 8.3s0.9 6.5 0.3 10.1l-9.2 51.8c-0.6 3.6-1.8 7-3.8 10.1-1.9 3.1-4.2 5.8-7 8.2-2.7 2.4-5.8 4.2-9.2 5.5-3.4 1.4-6.8 2-10.4 2h-10.4c-3.6 0-6.9-0.7-9.8-2s-5.3-3.2-7.3-5.5c-2-2.4-3.3-5.1-4.1-8.2s-0.9-6.5-0.3-10.1l9.2-51.8c0.6-3.6 1.8-7 3.8-10.1 1.9-3.2 4.2-5.9 7-8.3s5.8-4.2 9.2-5.6c3.4-1.3 6.9-2 10.5-2h10.5zm0.8 26c0.6-3.5-0.9-5.2-4.4-5.2h-10.4c-3.5 0-5.6 1.8-6.2 5.2l-9.2 51.8c-0.6 3.4 0.8 5.1 4.4 5.1h10.4c3.5 0 5.5-1.7 6.2-5.1l9.2-51.8z"/>
		<linearGradient id="ay" x1="154.33" x2="154.33" y1="1.5531" y2="480.88" gradientTransform="matrix(.9886 -.1506 .1506 .9886 -61.436 484.85)" gradientUnits="userSpaceOnUse">
		<stop stop-color="#781134" offset="0"/>
		<stop stop-color="#7D245B" offset="0"/>
	</linearGradient>
	<path class="st12" d="m50.4 469.4c-15.3 16.6-40.7 49.2-47.6 94.9-14 92.3 57.6 167.9 73.3 183.6 28 27.9 45.8 34.4 76.2 56.9 17.5 12.9 28.7 22.9 42.3 35.4 18.8 17.3 44.7 43.7 71.5 81.3 1.8-30.8-0.2-76.3-20.9-124.4-19.8-46-50-78.5-62.3-92-30.9-33.9-48.4-42.8-66.9-60.7-28.9-28.1-60.1-78.2-65.6-175z"/>
		<linearGradient id="ax" x1="25.727" x2="260.19" y1="353.8" y2="353.8" gradientTransform="matrix(.9886 -.1506 .1506 .9886 -61.436 484.85)" gradientUnits="userSpaceOnUse">
		<stop stop-color="#B02852" offset="0"/>
		<stop stop-color="#831535" offset="1"/>
	</linearGradient>
	<path class="st13" d="m7.6 666.7c-4.9 25.3-10.9 75.8 9.4 132.9 6.8 19 39.9 104 131.3 142.6 51.5 21.7 99.2 18.8 125.4 15-9.7-13.5-23.3-31.5-40.7-51.9-14.7-17.3-35.6-41.8-62-64.4-35.8-30.7-53-33.3-78.8-52-26.7-19.4-60.4-54.2-84.6-122.2z"/>
		<linearGradient id="aw" x1="13.834" x2="485.82" y1="485.43" y2="485.43" gradientTransform="matrix(.9886 -.1506 .1506 .9886 -61.436 484.85)" gradientUnits="userSpaceOnUse">
		<stop stop-color="#B02852" offset="0"/>
		<stop stop-color="#831535" offset="1"/>
	</linearGradient>
	<path class="st14" d="m6.6 839.5c47.9 104.2 162.1 161 271.7 136.7 104.1-23.1 181.6-114.5 187.9-223.2 30.1 89.1 16 183.6-40.8 244.6-48.4 52-112.7 63.5-133.6 66.9-3.2 0.5-8 1.3-14 2-64.7 7.4-119-14.6-141.8-26.2-64.9-33.1-116.9-108.4-129.4-200.8z"/>
		<linearGradient id="av" x1="64.884" x2="529.21" y1="434.41" y2="434.41" gradientTransform="matrix(.9507 -.3102 .3102 .9507 -153.21 560.63)" gradientUnits="userSpaceOnUse">
		<stop stop-color="#781134" offset="0"/>
		<stop stop-color="#6B275C" offset="0"/>
	</linearGradient>
	<path class="st15" d="m282.7 998.8c24.9-4.9 89.9-21.9 137.8-82.1 17.4-21.9 55.1-77.8 48.4-146.2-0.7-7.4-1.8-13.5-2.7-17.6-2 54.8-22.7 105.3-56 144.8-41.1 48.7-95.2 70.9-131.9 78.4-95.9 19.6-205.2-34.2-272-136 8.4 20.9 24.1 52.9 53.4 84.3 9.9 10.6 31.7 33.5 66.2 51.8 72.3 38.3 144.2 25.1 156.8 22.6z"/>
		<linearGradient id="au" x1="87.152" x2="436.57" y1="644.05" y2="644.05" gradientTransform="matrix(.9886 -.1506 .1506 .9886 -61.436 484.85)" gradientUnits="userSpaceOnUse">
		<stop stop-color="#9E1C2E" offset="0"/>
		<stop stop-color="#16436E" offset=".5076"/>
		<stop stop-color="#4F1343" offset="1"/>
	</linearGradient>
	<path class="st16" d="m111.5 1041.3c15 12.1 41.8 30.5 79.6 41 47.5 13.2 86.3 6.7 102.6 3.8 91.7-16.4 146.9-84 162.2-104.2-2.8 16.1-8.1 39.3-18.7 65.9-8 20-16.8 36.4-20.9 42.9-31.5 50.8-141.9 95.9-226.9 48.3-51-28.5-71.2-78.3-77.9-97.7z"/>
		<linearGradient id="at" x1="87.152" x2="436.57" y1="644.05" y2="644.05" gradientTransform="matrix(.9886 -.1506 .1506 .9886 -61.436 484.85)" gradientUnits="userSpaceOnUse">
		<stop stop-color="#B02852" offset="0"/>
		<stop stop-color="#831535" offset="1"/>
	</linearGradient>
	<path class="st17" d="m111.5 1041.3c15 12.1 41.8 30.5 79.6 41 47.5 13.2 86.3 6.7 102.6 3.8 91.7-16.4 146.9-84 162.2-104.2-2.8 16.1-8.1 39.3-18.7 65.9-8 20-16.8 36.4-20.9 42.9-31.5 50.8-141.9 95.9-226.9 48.3-51-28.5-71.2-78.3-77.9-97.7z"/>
		<linearGradient id="as" x1="87.152" x2="436.57" y1="622.42" y2="622.42" gradientTransform="matrix(.9886 -.1506 .1506 .9886 -61.436 484.85)" gradientUnits="userSpaceOnUse">
		<stop stop-color="#781134" offset="0"/>
		<stop stop-color="#6B275C" offset="0"/>
	</linearGradient>
	<path class="st18" d="m195.2 1109.2c41.7 15.1 77.6 8.4 102.6 3.8 21.6-4 57.6-11 93.3-38.6 41-31.7 58-72.3 64.5-91.4v0.4 0.4l0.3-1.8c-15.3 20.2-70.5 87.7-162.2 104.2-16.2 2.9-55 9.4-102.6-3.8-37.8-10.5-64.6-28.9-79.6-41 0.4 1.2 0.9 2.6 1.4 4 10.9 15.5 36.9 47.4 82.3 63.8z"/>
		<linearGradient id="ar" x1="295.04" x2="479.15" y1="194.05" y2="194.05" gradientTransform="matrix(.9507 -.3102 .3102 .9507 -153.21 560.63)" gradientUnits="userSpaceOnUse">
		<stop stop-color="#B02852" offset="0"/>
		<stop stop-color="#831535" offset="1"/>
	</linearGradient>
	<path class="st19" d="m305.6 444c9.7 17.3 21.7 42 30.8 73.1 3.4 11.6 17.2 59.4 14.3 106.9-5.7 93.4-74.4 159.7-94.9 178.3-2.3-10.5-6.5-24.7-15-40.1-10-18.2-21.8-30.8-30.5-38.7 20.6-14.9 52.9-42.7 76.4-87.6 44.8-85.4 25-169.4 18.9-191.9z"/>
		<linearGradient id="aq" x1="151.6" x2="151.6" y1="1.5531" y2="479.42" gradientTransform="matrix(.9886 -.1506 .1506 .9886 -61.436 484.85)" gradientUnits="userSpaceOnUse">
		<stop stop-color="#B02852" offset="0"/>
		<stop stop-color="#831535" offset="1"/>
	</linearGradient>
	<path class="st20" d="m50.4 469.4c-18.4 110.4 6.5 169.9 32 203.7 42.2 55.9 100.5 63.7 146.1 137.4 25.4 41 33.9 81.9 37.3 109.5-17.6-24.8-46.1-60.3-88.3-94.9-43.9-35.9-57.5-34.2-92.1-67.7-17.2-16.8-60.8-59.8-77.6-128.1-5.8-23.7-12.4-51.7-3.3-86.2 10.2-38.8 34.2-63.2 45.9-73.7z"/>
		<linearGradient id="ap" x1="657.39" x2="657.39" y1="1121.3" y2="710.95" gradientTransform="matrix(-.9886 .1506 .1506 .9886 921.27 335.15)" gradientUnits="userSpaceOnUse">
		<stop stop-color="#EE753B" offset="0"/>
		<stop stop-color="#EE3935" offset=".4822"/>
		<stop stop-color="#AF1F30" offset=".9949"/>
	</linearGradient>
	<path class="st21" d="m311.5 1173.2c22.3 42.1 44.9 91.4 65 147.6 29.7 83.3 45.8 159.7 54.6 223.2 18.3-12.4 45.1-34.9 57.8-70.4 14.2-39.9 3.5-76.6-20.3-142.1-19.1-52.6-45-119.4-79.2-196.2-5.5 5.5-12.3 11.3-20.7 16.9-21.9 14.3-43.3 19.2-57.2 21z"/>
		<linearGradient id="ao" x1="684.13" x2="684.13" y1="1121.3" y2="734.53" gradientTransform="matrix(-.9886 .1506 .1506 .9886 921.27 335.15)" gradientUnits="userSpaceOnUse">
		<stop stop-color="#F9C642" offset="0"/>
		<stop stop-color="#F37B2D" offset=".5635"/>
		<stop stop-color="#9B3C15" offset="1"/>
	</linearGradient>
	<path class="st22" d="m431 1544.1c6.1-21.8 13-54.7 11.8-94.7-0.4-14.5-2.6-53-31.6-130.8-14.5-38.9-37.3-91.8-73-151.6-2.8 1.1-5.8 2.1-9.1 3.1-5.3 1.6-12 3.1-17.6 3.2 29.5 58.3 50.6 110.5 65.6 152.6 11.4 31.9 27.6 78 40.9 141.1 6.4 30.7 10.4 57.1 13 77.1z"/>
		<linearGradient id="an" x1="657.66" x2="657.66" y1="1122.7" y2="724.5" gradientTransform="matrix(-.9886 .1506 .1506 .9886 921.27 335.15)" gradientUnits="userSpaceOnUse">
		<stop stop-color="#EE753B" offset="0"/>
		<stop stop-color="#F68E2E" offset="0"/>
		<stop stop-color="#F06138" offset=".5127"/>
		<stop stop-color="#AF1F30" offset=".9949"/>
	</linearGradient>
	<path class="st23" d="m368.5 1152.2c26.7 55.8 46.2 104.1 59.9 140.4 39.3 104 40.9 137.7 37 166-5.4 38.6-21.4 68.3-33.4 86.7 4.1-23.4 8-57.9 5-99.3-4-56.3-18.8-97.2-37.2-146.9-12.8-34.5-32.2-80.4-61.6-132.1 0 0 25.8-11.7 30.3-14.8z"/>
		<linearGradient id="am" x1="96.732" x2="96.732" y1="1121.3" y2="710.95" gradientTransform="matrix(.9886 -.1506 .1506 .9886 6.6129 474.49)" gradientUnits="userSpaceOnUse">
		<stop stop-color="#EE753B" offset="0"/>
		<stop stop-color="#EE3935" offset=".4822"/>
		<stop stop-color="#AF1F30" offset=".9949"/>
	</linearGradient>
	<path class="st24" d="m284 1177.4c-8.7 46.9-15.7 100.7-18 160.3-3.5 88.4 3.9 166.1 14.4 229.3-21.2-6.4-53.5-19.8-76.1-50.1-25.4-33.9-26.1-72.1-23-141.7 2.6-55.9 7.4-127.4 17.2-210.9 6.9 3.6 15.2 7.2 24.8 9.9 25 7.3 46.9 5.6 60.7 3.2z"/>
		<linearGradient id="al" x1="123.48" x2="123.48" y1="1121.3" y2="734.53" gradientTransform="matrix(.9886 -.1506 .1506 .9886 6.6129 474.49)" gradientUnits="userSpaceOnUse">
		<stop stop-color="#F9C642" offset="0"/>
		<stop stop-color="#F37B2D" offset=".5635"/>
		<stop stop-color="#9B3C15" offset="1"/>
	</linearGradient>
	<path class="st25" d="m280.4 1567c-12.3-18.9-28.7-48.3-39.5-86.9-3.9-14-13.3-51.4-8.8-134.3 2.3-41.5 8.3-98.7 24.6-166.4 3 0.2 6.2 0.3 9.6 0.2 5.5-0.1 12.3-0.6 17.8-2.2-10.8 64.5-15.4 120.6-17.2 165.2-1.3 33.9-3.1 82.7 3 146.8 2.9 31.4 7 57.8 10.5 77.6z"/>
		<linearGradient id="ak" x1="97.009" x2="97.009" y1="1122.7" y2="724.5" gradientTransform="matrix(.9886 -.1506 .1506 .9886 6.6129 474.49)" gradientUnits="userSpaceOnUse">
		<stop stop-color="#EE753B" offset="0"/>
		<stop stop-color="#F68E2E" offset="0"/>
		<stop stop-color="#F06138" offset=".5127"/>
		<stop stop-color="#AF1F30" offset=".9949"/>
	</linearGradient>
	<path class="st26" d="m223.3 1174.3c-8.8 61.3-13.1 113.1-15.4 151.9-6.5 111 1.9 143.6 14.2 169.5 16.7 35.3 40.7 58.8 57.7 72.8-10.8-21.1-24.9-52.9-34.4-93.3-12.9-54.9-11-98.4-8.2-151.3 1.9-36.7 6.8-86.3 19.4-144.4 0-0.1-28.1-3.5-33.3-5.2z"/>
		<linearGradient id="aj" x1="307.32" x2="307.32" y1="19.789" y2="307.55" gradientTransform="matrix(.9886 -.1506 .1506 .9886 -61.436 484.85)" gradientUnits="userSpaceOnUse">
		<stop stop-color="#781134" offset="0"/>
		<stop stop-color="#6B275C" offset="0"/>
	</linearGradient>
	<path class="st27" d="m307.5 448.7c9 17.9 37.4 79.9 20.4 158.5-18.6 86.3-78.8 132.8-93.8 143.7-1.9-3.8-4.7-8.5-8.7-13.2-5.3-6.4-10.8-10.8-15.1-13.7 20.3-15.6 56.8-48.2 81.1-102 35.1-77.8 21.8-149.2 16.1-173.3z"/>
		<linearGradient id="ai" x1="188.86" x2="188.86" y1="-273.33" y2="251.55" gradientTransform="matrix(.9886 -.1506 .1506 .9886 -61.436 484.85)" gradientUnits="userSpaceOnUse">
		<stop stop-color="#F9C642" offset="0"/>
		<stop stop-color="#F37B2D" offset=".5635"/>
		<stop stop-color="#9B3C15" offset="1"/>
	</linearGradient>
	<path class="st28" d="m221.7 696.2c-50.5-31.6-119.2-87.5-143.2-170.3-8.5-29.3-12.2-64.7-12.8-70.9-7-69.4 6.2-95.8 1.4-146-2.6-27.3-11.1-67-39.1-114.2 25.7 15.2 62.8 42.3 86.2 87.3 37.5 72.4 8.7 131.6 21.9 223.2 6.8 46.2 25.9 113.4 85.6 190.9z"/>
		<linearGradient id="ah" x1="322.31" x2="322.31" y1="-49.351" y2="250.82" gradientTransform="matrix(.9886 -.1506 .1506 .9886 -61.436 484.85)" gradientUnits="userSpaceOnUse">
		<stop stop-color="#EE753B" offset="0"/>
		<stop stop-color="#EE3935" offset=".4822"/>
		<stop stop-color="#AF1F30" offset=".9949"/>
	</linearGradient>
	<path class="st29" d="m231 694c-19.4-55.2-19.3-101.3-17.2-127.6 2.3-29.6 9-114.9 73.4-168.3 12.6-10.5 24.4-17.2 32.2-21.2-9.9 14.7-21.8 37.2-24 65.7-1.6 21.5 3.6 28.6 6 49.3 6 51.2-15.7 95.7-44.4 154.5-9.1 18.7-18.1 34.6-26 47.6z"/>
		<linearGradient id="ag" x1="275.86" x2="275.86" y1="-445.2" y2="170.73" gradientTransform="matrix(.9886 -.1506 .1506 .9886 -61.436 484.85)" gradientUnits="userSpaceOnUse">
		<stop stop-color="#F9C642" offset="0"/>
		<stop stop-color="#F37B2D" offset=".5635"/>
		<stop stop-color="#9B3C15" offset="1"/>
	</linearGradient>
	<path class="st30" d="m195.3 618.4c-15.2-26.8-33.4-67.2-38.7-118.2-4.6-44.2 3.9-64.8 7-99.6 12.2-137.8-88.7-178.3-61.9-280.2 0 0 0.9-3.5 63.4-120.5-1.9 17.5-3.3 39.6-2 64.9 0.6 12.3 2.9 44.4 13.8 84 31.6 115 93.4 139.5 91.4 212.1-1.7 60.6-45.4 67.8-65.6 170.6-7 35.9-7.9 66.3-7.4 86.9z"/>
		<linearGradient id="af" x1="4.8793" x2="38.76" y1="226.34" y2="431.16" gradientTransform="matrix(.9999 .012753 -.012753 .9999 47.361 305.17)" gradientUnits="userSpaceOnUse">
		<stop stop-color="#841223" offset="0"/>
		<stop stop-color="#420737" offset="1"/>
	</linearGradient>
	<path class="st31" d="m26.8 535c-2.3 29.2-2.7 90.4 35.1 147 20.5 30.7 46.6 51.6 48.1 50.3 1.8-1.6-37.3-37.1-61.4-92.7-17.4-40-21.4-77.6-21.8-104.6z"/>
		<linearGradient id="ae" x1="145.03" x2="158.18" y1="291.97" y2="291.97" gradientTransform="matrix(.9886 -.1506 .1506 .9886 -61.436 484.85)" gradientUnits="userSpaceOnUse">
		<stop stop-color="#841223" offset="0"/>
		<stop stop-color="#0E375E" offset=".5076"/>
		<stop stop-color="#420737" offset="1"/>
	</linearGradient>
	<circle class="st32" cx="132.4" cy="750.7" r="6.6"/>
		<linearGradient id="ad" x1="145.03" x2="158.18" y1="291.97" y2="291.97" gradientTransform="matrix(.9886 -.1506 .1506 .9886 -61.436 484.85)" gradientUnits="userSpaceOnUse">
		<stop stop-color="#841223" offset="0"/>
		<stop stop-color="#420737" offset="1"/>
	</linearGradient>
	<circle class="st33" cx="132.4" cy="750.7" r="6.6"/>
		<linearGradient id="ac" x1="341.13" x2="354.28" y1="247.06" y2="247.06" gradientTransform="matrix(.9886 -.1506 .1506 .9886 -61.436 484.85)" gradientUnits="userSpaceOnUse">
		<stop stop-color="#841223" offset="0"/>
		<stop stop-color="#420737" offset="1"/>
	</linearGradient>
	<circle class="st34" cx="319.5" cy="676.7" r="6.6"/>
		<linearGradient id="ab" x1="105.36" x2="118.51" y1="430" y2="430" gradientTransform="matrix(.9886 -.1506 .1506 .9886 -61.436 484.85)" gradientUnits="userSpaceOnUse">
		<stop stop-color="#841223" offset="0"/>
		<stop stop-color="#420737" offset="1"/>
	</linearGradient>
	<circle class="st35" cx="114" cy="893.1" r="6.6"/>
		<linearGradient id="aa" x1="254.32" x2="267.46" y1="700.89" y2="700.89" gradientTransform="matrix(.9886 -.1506 .1506 .9886 -61.436 484.85)" gradientUnits="userSpaceOnUse">
		<stop stop-color="#841223" offset="0"/>
		<stop stop-color="#420737" offset="1"/>
	</linearGradient>
	<circle class="st36" cx="302" cy="1138.5" r="6.6"/>
		<linearGradient id="z" x1="351.76" x2="351.76" y1="241.16" y2="83.096" gradientTransform="matrix(.9118 -.4107 .4107 .9118 -182.43 821.61)" gradientUnits="userSpaceOnUse">
		<stop stop-color="#841223" offset="0"/>
		<stop stop-color="#420737" offset="1"/>
	</linearGradient>
	<path class="st37" d="m151.7 762.3c12.1 7.6 25.4 17.4 38.6 30 36 34.5 53.5 73.1 62.2 97.9-2.2-14.6-8.9-47-34.2-78.5-24.3-30.2-53-43.9-66.6-49.4z"/>
		<linearGradient id="y" x1="249.85" x2="249.85" y1="-445.2" y2="170.73" gradientTransform="matrix(.9886 -.1506 .1506 .9886 -61.436 484.85)" gradientUnits="userSpaceOnUse">
		<stop stop-color="#EE753B" offset="0"/>
		<stop stop-color="#EE3935" offset=".4822"/>
		<stop stop-color="#AF1F30" offset=".9949"/>
	</linearGradient>
	<path class="st38" d="m165.1 0c-20.1 33.1-43.8 84.4-38.8 144.8 6.6 78.6 55.3 92.6 66.6 181.5 7.9 62.6-13.7 75.8-11.9 170.7 1 51.5 8.2 93.6 14.3 121.4-37.7-79.1-41.4-138-37.2-178 2.4-22.5 9.2-57.1 0.7-104.2-5-27.5-15.7-58.2-22.4-70.5-0.6-1.1-5.4-9.9-11.5-22-2.4-4.8-4.4-8.8-5.6-11.4-11.3-23.7-18.9-42.5-19.9-45.1-9.7-25.2 2.1-69.2 4.4-78.1 13.6-50.8 41.3-87.4 61.3-109.1z"/>
		<linearGradient id="x" x1="271.54" x2="271.54" y1="-445.2" y2="163.27" gradientTransform="matrix(.9886 -.1506 .1506 .9886 -61.436 484.85)" gradientUnits="userSpaceOnUse">
		<stop stop-color="#EE753B" offset="0"/>
		<stop stop-color="#F68E2E" offset="0"/>
		<stop stop-color="#F06138" offset=".5127"/>
		<stop stop-color="#AF1F30" offset=".9949"/>
	</linearGradient>
	<path class="st39" d="m165.1 0c-20.1 62.9-17.8 111.3-11.8 144.1 17.5 95.1 77.1 117.8 77.2 203 0.1 44.7-16.3 47.7-29 126.6-9.2 57.6-8.5 105.8-6.4 137.3-14.4-66.6-16.3-120.6-15.4-157.6 2.1-89.2 21.7-124.2-3.9-174.1-7.7-15-23.1-38.3-39.6-79.3-8.7-21.7-13.1-36.8-14.7-54.4-0.4-4.5-2.1-24.7 4-54.3 4.4-20.5 14.2-54.2 39.6-91.3z"/>
		<linearGradient id="w" x1="187.89" x2="187.89" y1="-274.3" y2="251.55" gradientTransform="matrix(.9886 -.1506 .1506 .9886 -61.436 484.85)" gradientUnits="userSpaceOnUse">
		<stop stop-color="#EE753B" offset="0"/>
		<stop stop-color="#EE3935" offset=".4822"/>
		<stop stop-color="#AF1F30" offset=".9949"/>
	</linearGradient>
	<path class="st40" d="m27.7 193.8c16.3 15.2 39.4 40.7 53.4 77.6 27.1 71.4-6.9 120.8 8.6 205.5 4 21.7 14 73.4 49.6 125.4 0 0 11.1 16.2 82.3 93.9-15.5-8.8-36.1-22.1-57.5-41.5-12.7-11.5-48.2-44-72.5-94.3-32.9-68.2-29.8-137.4-28.4-170.1 1.6-36.5 8.1-71.1-1.6-110.6-7.1-29.2-19.5-57.1-19.5-57.1-5.2-11.9-10.4-21.7-14.4-28.8z"/>
		<linearGradient id="v" x1="190.03" x2="190.03" y1="-274.3" y2="251.55" gradientTransform="matrix(.9886 -.1506 .1506 .9886 -61.436 484.85)" gradientUnits="userSpaceOnUse">
		<stop stop-color="#EE753B" offset="0"/>
		<stop stop-color="#F68E2E" offset="0"/>
		<stop stop-color="#F06138" offset=".5127"/>
		<stop stop-color="#AF1F30" offset=".9949"/>
	</linearGradient>
	<path class="st41" d="m27.7 193.8c22.9 15.4 53.2 41.8 70 82.9 12.1 29.5 13.6 57.8 14.9 81.9 1.7 30.4-1.2 47.1-2.3 65.9-4.5 79.6 27.4 145.7 38.5 169 12.4 25.8 34.5 64 72.8 102.7-20.6-15.9-37.2-32.2-50.3-47.3-5.2-6-17.3-20.3-29.9-40-47-73.1-59.6-155.2-56.2-184.9 0.3-2.8 2.1-16.7 2.7-36 0-0.9 0.2-11.5 0.1-23.1-0.6-44.3-1-68.8-10.2-96-5.7-16.9-18.6-45.8-50.1-75.1z"/>
		<linearGradient id="u" x1="323.24" x2="323.24" y1="-49.351" y2="250.82" gradientTransform="matrix(.9886 -.1506 .1506 .9886 -61.436 484.85)" gradientUnits="userSpaceOnUse">
		<stop stop-color="#F9C642" offset="0"/>
		<stop stop-color="#F37B2D" offset=".5635"/>
		<stop stop-color="#9B3C15" offset="1"/>
	</linearGradient>
	<path class="st42" d="m319.4 376.9c-25.4 20.4-55.9 52.2-63.6 96.4-4.7 26.5 4.9 23.2 2.2 59.8-4.4 60-31.6 88.3-27.5 154 0.2 3.1 0.4 5.5 0.5 7-11.7-40.3-26-110.1-8.6-185.5 10.2-44.4 26.1-67.8 32.6-76.7 21.8-30 48.2-46.6 64.4-55z"/>
		<linearGradient id="t" x1="325.14" x2="325.14" y1="-49.351" y2="250.82" gradientTransform="matrix(.9886 -.1506 .1506 .9886 -61.436 484.85)" gradientUnits="userSpaceOnUse">
		<stop stop-color="#EE753B" offset="0"/>
		<stop stop-color="#F68E2E" offset="0"/>
		<stop stop-color="#F06138" offset=".5127"/>
		<stop stop-color="#AF1F30" offset=".9949"/>
	</linearGradient>
	<path class="st43" d="m319.4 376.9c-36.5 45.3-38.4 73-38.1 82.6 0.1 3.9 0.8 18.6 2.5 36.1 1.7 17 3.1 24.2 3.6 30 2.5 27.1-11.4 49.3-20.5 66.2-11.6 21.7-25.7 54.5-35.9 102.2-2.5-18.8-4.2-47.9 3.6-81.6 6.6-28.5 13.9-34.1 19.1-62 8-42.5-3.8-57.1 1-86.1 3.8-22.5 17.5-53.8 64.7-87.4z"/>
		<linearGradient id="s" x1="307.08" x2="530.21" y1="275.69" y2="275.69" gradientTransform="matrix(.9507 -.3102 .3102 .9507 -153.21 560.63)" gradientUnits="userSpaceOnUse">
		<stop stop-color="#B02852" offset="0"/>
		<stop stop-color="#831535" offset="1"/>
	</linearGradient>
	<path class="st44" d="m339.7 480.2c45.5 135.6 27.4 205.4 0.8 244.2-15.1 22-42.2 47.5-54.5 95-10 38.7-5.5 73.7 0.1 97.5 17.7-40.9 32.6-70.4 38.2-79 2.3-3.5 10.8-15.4 17-22.4 6.3-7.1 10.3-12.2 11.1-13.1 6.1-7.6 42.8-48.3 45.2-51 28.2-31.6 37-113.1 9.5-181.5-18.3-45.4-48.2-74.3-67.4-89.7z"/>
		<linearGradient id="r" x1="373.08" x2="373.08" y1="219.42" y2="518.38" gradientTransform="matrix(.9886 -.1506 .1506 .9886 -61.436 484.85)" gradientUnits="userSpaceOnUse">
		<stop stop-color="#B02852" offset="0"/>
		<stop stop-color="#831535" offset="1"/>
	</linearGradient>
	<path class="st45" d="m432.7 631.5c1.5 13.2 2.4 32.5-1.4 55.4-2 12.1-7.9 40.6-31.2 79.6-25.6 42.8-42.2 48-66.5 81-16.3 22.2-35.8 56.7-46.5 108.5 23.9-9.7 98.4-43.5 137.8-123.4 18-36.6 22.7-70.7 24.2-87 4.6-51.7-8.1-92.7-16.4-114.1z"/>
		<linearGradient id="q" x1="354.39" x2="354.39" y1="55.82" y2="479.42" gradientTransform="matrix(.9886 -.1506 .1506 .9886 -61.436 484.85)" gradientUnits="userSpaceOnUse">
		<stop stop-color="#781134" offset="0"/>
		<stop stop-color="#6B275C" offset="0"/>
	</linearGradient>
	<path class="st46" d="m339.7 480.2c16.1 19.3 48.7 64 53.9 127.7 5.6 68.1-22.8 121.5-33 138.8-20.8 35.1-36.8 40.2-54.2 77.5-16.6 35.4-20.1 69.2-20.3 92.7-3.5-12.3-7.5-30.7-7.1-53.1 0.4-23.7 5.4-42.8 10.7-58.8 26.6-79.2 63.8-88.9 74.5-151.2 3.5-20.6 2.8-36.3 0.2-63.1-2.5-26.4-8.5-64.8-24.7-110.5z"/>
		<linearGradient id="p" x1="370.18" x2="370.18" y1="219.42" y2="518.38" gradientTransform="matrix(.9886 -.1506 .1506 .9886 -61.436 484.85)" gradientUnits="userSpaceOnUse">
		<stop stop-color="#781134" offset="0"/>
		<stop stop-color="#6B275C" offset="0"/>
	</linearGradient>
	<path class="st47" d="m432.7 631.5c4 19.1 7.8 47.9 3.7 82.2-1.6 13.5-6.5 44.8-28.6 90.1-34.2 70-84.2 121-120.6 152.3 10.9-55.3 31.8-90.7 48.8-112.8 20.8-27 43-43.6 68.8-85.3 7.9-12.9 20-34.3 25.3-63.9 1.8-10.2 2.4-18.9 2.5-25l0.1-37.6z"/>
		<linearGradient id="o" x1="150.19" x2="150.19" y1="190.2" y2="517.4" gradientTransform="matrix(.9886 -.1506 .1506 .9886 -61.436 484.85)" gradientUnits="userSpaceOnUse">
		<stop stop-color="#781134" offset="0"/>
		<stop stop-color="#6B275C" offset="0"/>
	</linearGradient>
	<path class="st48" d="m7.6 666.7c2.2 26 9.2 68.3 34.8 111.9 10.6 18.1 26 39.1 58.8 68.9 32.6 29.5 88.2 72.9 172.6 109.6-39.1-69.8-83-107.5-116.4-129-34.5-22.3-62.8-30.5-94.4-63.4-32.2-33.5-47.5-71.3-55.4-98z"/>
		<linearGradient id="n" x1="443.15" x2="443.15" y1="406.02" y2="306.7" gradientTransform="matrix(.9886 -.1506 .1506 .9886 -61.436 484.85)" gradientUnits="userSpaceOnUse">
		<stop stop-color="#841223" offset="0"/>
		<stop stop-color="#420737" offset="1"/>
	</linearGradient>
	<path class="st49" d="m443.1 718.2c1.1 12.2 1.3 29.4-2.8 49.2-5.2 24.9-15.2 43.6-22.6 55.2 6.2-15.2 12.4-33.2 17.3-54 4.2-18.5 6.7-35.5 8.1-50.4z"/>
		<linearGradient id="m" x1="409.55" x2="422.7" y1="414.5" y2="414.5" gradientTransform="matrix(.9886 -.1506 .1506 .9886 -61.436 484.85)" gradientUnits="userSpaceOnUse">
		<stop stop-color="#841223" offset="0"/>
		<stop stop-color="#420737" offset="1"/>
	</linearGradient>
	<circle class="st50" cx="412.4" cy="832" r="6.6"/>
		<linearGradient id="l" x1="318.38" x2="406.5" y1="462.62" y2="462.62" gradientTransform="matrix(.9886 -.1506 .1506 .9886 -61.436 484.85)" gradientUnits="userSpaceOnUse">
		<stop stop-color="#841223" offset="0"/>
		<stop stop-color="#420737" offset="1"/>
	</linearGradient>
	<path class="st51" d="m405 847.5c-5.6 11-13.6 24.3-25.3 37.8-18.2 21.2-37.7 34.5-51.7 42.3 12.4-10.6 25.5-22.7 38.8-36.4 14.7-15 27.3-29.8 38.2-43.7z"/>
		<linearGradient id="k" x1="88.561" x2="44.579" y1="317.29" y2="361.27" gradientTransform="matrix(.9886 -.1506 .1506 .9886 -61.436 484.85)" gradientUnits="userSpaceOnUse">
		<stop stop-color="#841223" offset="0"/>
		<stop stop-color="#420737" offset="1"/>
	</linearGradient>
	<path class="st52" d="m10.7 738.7c2.1 16.2 6.9 38 18.2 61.5 21.4 44.5 54.2 69.9 71.5 81.5-17.2-17.2-37.9-41.1-56.9-72.6-15.5-25.9-25.8-50.3-32.8-70.4z"/>
		<linearGradient id="j" x1="180.01" x2="172.89" y1="473.24" y2="485.58" gradientTransform="matrix(.9886 -.1506 .1506 .9886 -61.436 484.85)" gradientUnits="userSpaceOnUse">
		<stop stop-color="#841223" offset="0"/>
		<stop stop-color="#420737" offset="1"/>
	</linearGradient>
	<path class="st53" d="m132.6 904c9 9.3 24.5 23 47.2 33.4 25.1 11.6 47.8 13.9 61.3 14.3-16.9-4.4-36.6-10.8-57.8-20.3-19.8-8.7-36.7-18.3-50.7-27.4z"/>
		<linearGradient id="i" x1="359.52" x2="387.29" y1="177.79" y2="177.79" gradientTransform="matrix(.9886 -.1506 .1506 .9886 -61.436 484.85)" gradientUnits="userSpaceOnUse">
		<stop stop-color="#841223" offset="0"/>
		<stop stop-color="#420737" offset="1"/>
	</linearGradient>
	<path class="st54" d="m338.1 545.5c4.3 14.7 9.3 39.3 5.4 69.4-2.7 20.5-8.7 37-14 48.7 3.8-14.9 7.2-32.5 9-52.3 2.3-25.3 1.5-47.6-0.4-65.8z"/>
		<linearGradient id="h" x1="271.15" x2="337.61" y1="296.84" y2="296.84" gradientTransform="matrix(.9886 -.1506 .1506 .9886 -61.436 484.85)" gradientUnits="userSpaceOnUse">
		<stop stop-color="#841223" offset="0"/>
		<stop stop-color="#420737" offset="1"/>
	</linearGradient>
	<path class="st55" d="m312.6 698.6c-2 8.4-6.1 20.7-14.9 33.3-14.4 20.7-33 30.5-42 34.5 9.9-7.9 21.4-18.6 32.8-32.3 10.5-12.8 18.3-25 24.1-35.5z"/>
		<linearGradient id="g" x1="351.6" x2="351.6" y1="318.02" y2="432.68" gradientTransform="matrix(.9886 -.1506 .1506 .9886 -61.436 484.85)" gradientUnits="userSpaceOnUse">
		<stop stop-color="#841223" offset="0"/>
		<stop stop-color="#420737" offset="1"/>
	</linearGradient>
	<path class="st56" d="m388.3 738c-24.9 29.1-50 62.6-73.8 100.6-6.2 9.8-12 19.6-17.5 29.3 4.6-12.9 10.6-26.9 18.4-41.4 22.4-41.3 50.7-69.9 72.9-88.5z"/>
		<rect class="st57" transform="matrix(.9857 -.1685 .1685 .9857 -164.56 43.121)" x="64" y="889" width="215.6" height="204.2"/>
		<linearGradient id="f" x1="179.42" x2="179.42" y1="611.22" y2="415.62" gradientTransform="matrix(.9507 -.3102 .3102 .9507 -153.21 560.63)" gradientUnits="userSpaceOnUse">
		<stop stop-color="#841223" offset="0"/>
		<stop stop-color="#420737" offset="1"/>
	</linearGradient>
	<path class="st58" d="m298.3 1051.1c0.2 4.3-5 7.4-8.9 7.7-3.3 0.2-5.7-1.6-8.3-3.3-5.5-3.7-11.7-6.2-17.5-9.5-6.4-3.6-16.3-4.5-36.1-6.3-26.3-2.4-32.1-0.5-41.4-1-4.7-0.3-8.2-1-10.1-1.3-24.8-4.5-41.5-13.4-41.5-13.4-4-2.1-13.9-7.8-32.4-27.3-30.2-31.9-49.9-65.3-48.7-66.2 0.3-0.2 5 5.2 14.3 16.1 13.1 15.3 18.8 22.6 23.7 28.4 15.9 18.8 25.7 30.4 42.7 40.6 0 0 20.4 12 45 16.7 5.6 1.1 9.9 1.5 13.7 1.7 8.7 0.4 13.7-0.2 20.8-0.5 8.3-0.3 14 0.1 24.6 1 9.9 0.8 17.4 2.7 22.4 3.8 17 3.8 21.6 6.9 26.7 6.8 0.5 0 1.8-0.7 3.5-0.5 3.2 0.1 7.3 2.9 7.5 6.5z"/>
		<linearGradient id="e" x1="262.26" x2="502.15" y1="541.93" y2="541.93" gradientTransform="matrix(.9507 -.3102 .3102 .9507 -153.21 560.63)" gradientUnits="userSpaceOnUse">
		<stop stop-color="#841223" offset="0"/>
		<stop stop-color="#420737" offset="1"/>
	</linearGradient>
	<path class="st59" d="m283.7 1054.2c0.5 2.8 5 5 8.5 4.4 3-0.5 4.7-3.9 5.7-5.8 2-3.5 7.4-7.6 18.4-15.9 7.5-5.7 16.4-10.8 31.9-18 31.3-14.3 32.1-10.2 47.8-19.3 20.9-12.1 32.7-26.7 36.1-30.9 3.3-4.2 10.3-13.7 19.1-35.5 16.8-41.5 20.6-79.2 19.4-79.4-0.9-0.2-4.6 22.9-17.9 60.4-13.1 36.7-21.3 47.1-24.4 50.9-13.7 17.1-29 26.1-36.9 30.7-5 2.9-8.9 4.8-12.4 6.2-8.1 3.2-13 4.4-19.8 6.5-7.9 2.4-13.1 4.8-22.8 9.1-9.1 4.1-15.6 8.3-19.9 11 0 0-9.7 5.7-23 15.3-7.7 5.5-10.2 7.9-9.8 10.3z"/>
		<rect class="st57" transform="matrix(.9857 -.1685 .1685 .9857 -157.86 77.972)" x="278.4" y="863.3" width="204.2" height="211.6"/>
		<linearGradient id="d" x1="185.94" x2="177.14" y1="619.53" y2="679.36" gradientTransform="matrix(.9507 -.3102 .3102 .9507 -153.21 560.63)" gradientUnits="userSpaceOnUse">
		<stop stop-color="#841223" offset="0"/>
		<stop stop-color="#420737" offset="1"/>
	</linearGradient>
	<path class="st60" d="m159.5 1101.5c9.8 7.2 21.9 14.8 36.5 21.5 34 15.5 65.5 18.7 86.1 18.8-11.4 2.4-36 6-64.9-3-31.1-9.7-50-28.6-57.7-37.3z"/>
		<linearGradient id="c" x1="3022.5" x2="3012.3" y1="1129" y2="1198.8" gradientTransform="matrix(-.9993 -.038137 -.038137 .9993 3434.3 42.893)" gradientUnits="userSpaceOnUse">
		<stop stop-color="#841223" offset="0"/>
		<stop stop-color="#420737" offset="1"/>
	</linearGradient>
	<path class="st61" d="m428.3 1049.6c-6.9 9.9-15.5 20.5-26.2 31.2-28.7 28.4-59.5 43.3-81 51.3 12.8-2.1 34.8-7.5 57.5-23 30-20.5 44.1-47.1 49.7-59.5z"/>
		<linearGradient id="b" x1="467.7" x2="385.54" y1="142.46" y2="224.62" gradientTransform="matrix(.9886 -.1506 .1506 .9886 -61.436 484.85)" gradientUnits="userSpaceOnUse">
		<stop stop-color="#841223" offset="0"/>
		<stop stop-color="#420737" offset="1"/>
	</linearGradient>
	<path class="st62" d="m372.3 518.4c9.7 13.8 21.1 33.6 29 59.1 4.6 15.1 10.8 34.9 9.2 60.6-0.9 15.1-4.9 40.6-4.9 40.6s-0.6 2.3-1.9 6.9c2.2-18.6 3.2-42.3-0.2-69.4-5.5-42.9-19.8-76.3-31.2-97.8z"/>
		<linearGradient id="a" x1="408.22" x2="421.37" y1="294.98" y2="294.98" gradientTransform="matrix(.9886 -.1506 .1506 .9886 -61.436 484.85)" gradientUnits="userSpaceOnUse">
		<stop stop-color="#841223" offset="0"/>
		<stop stop-color="#420737" offset="1"/>
	</linearGradient>
	<circle class="st63" cx="393.1" cy="714" r="6.6"/>
</svg>
